<?xml version="1.0" standalone="no"?>
<!DOCTYPE svg PUBLIC "-//W3C//DTD SVG 20010904//EN"
 "http://www.w3.org/TR/2001/REC-SVG-20010904/DTD/svg10.dtd">
<svg version="1.0" xmlns="http://www.w3.org/2000/svg"
 width="640.000000pt" height="832.000000pt" viewBox="0 0 640.000000 832.000000"
 preserveAspectRatio="xMidYMid meet">
<metadata>
Created by potrace 1.16, written by Peter Selinger 2001-2019
</metadata>
<g transform="translate(0.000000,832.000000) scale(0.100000,-0.100000)"
fill="#000000" stroke="none">
<path d="M2795 5353 c-15 -61 -673 -1805 -683 -1813 -4 -3 -8 -12 -8 -20 -1
-14 -250 -685 -260 -702 -3 -4 130 -8 294 -8 l300 0 25 73 c14 39 48 144 76
232 28 88 106 321 173 519 109 324 122 356 134 335 10 -22 138 -390 330 -956
l69 -203 273 0 272 0 10 23 c11 24 176 570 272 897 33 113 62 212 64 220 3 8
56 -136 119 -320 126 -375 244 -713 270 -777 l17 -43 295 0 c162 0 292 3 290
8 -3 4 -44 106 -92 227 -231 584 -457 1148 -490 1225 -20 47 -72 177 -116 290
-154 397 -324 820 -329 820 -3 0 -28 -71 -54 -157 -27 -87 -98 -315 -158 -508
-124 -395 -175 -564 -339 -1107 -29 -98 -56 -178 -59 -178 -3 0 -12 22 -21 48
-37 113 -190 555 -306 882 -69 195 -175 501 -235 680 -60 179 -113 329 -117
333 -5 5 -12 -4 -16 -20z"/>
</g>
</svg>
