<?xml version="1.0" standalone="no"?>
<!DOCTYPE svg PUBLIC "-//W3C//DTD SVG 20010904//EN"
 "http://www.w3.org/TR/2001/REC-SVG-20010904/DTD/svg10.dtd">
<svg version="1.0" xmlns="http://www.w3.org/2000/svg"
 width="640.000000pt" height="832.000000pt" viewBox="0 0 640.000000 832.000000"
 preserveAspectRatio="xMidYMid meet">
<metadata>
Created by potrace 1.16, written by Peter Selinger 2001-2019
</metadata>
<g transform="translate(0.000000,832.000000) scale(0.100000,-0.100000)"
fill="#000000" stroke="none">
<path d="M3146 5220 c-3 -8 -44 -121 -91 -250 -48 -129 -145 -395 -216 -590
-71 -195 -161 -440 -199 -545 -38 -104 -105 -291 -149 -415 -76 -216 -280
-776 -296 -812 -7 -17 6 -18 194 -18 l202 0 15 35 c8 20 75 210 148 423 73
213 166 473 205 578 39 105 71 198 71 205 1 23 22 -21 149 -321 171 -400 193
-450 200 -450 3 0 37 85 75 188 90 244 217 572 248 642 l25 55 15 -35 c9 -19
91 -201 183 -405 92 -203 216 -484 276 -624 60 -139 114 -262 120 -272 9 -18
24 -19 214 -19 113 0 205 2 205 5 0 14 -497 1105 -726 1593 -63 133 -114 247
-114 252 0 37 -28 -15 -100 -187 -45 -109 -85 -201 -89 -205 -4 -4 -23 29 -43
75 -137 309 -451 991 -490 1062 -17 32 -29 44 -32 35z"/>
</g>
</svg>
